<svg viewBox="0 0 24 24" xmlns="http://www.w3.org/2000/svg"><g id="a"/><g id="b"/><g id="c"/><g id="d"/><g id="e"/><g id="f"/><g id="g"/><g id="h"/><g id="i"/><g id="j"><g><path d="m20 5.25h-2c-.96 0-1.75.79-1.75 1.75v1.25h5.5v-1.25c0-.96-.79-1.75-1.75-1.75z"/><path d="m16.25 16.59c0 .46.19.91.51 1.24l1.71 1.71c.15.15.34.22.53.22s.38-.07.53-.22l1.71-1.71c.33-.33.51-.78.51-1.24v-6.84h-5.5z"/><path d="m12 3.25h-7c-1.52 0-2.75 1.23-2.75 2.75v12c0 1.52 1.23 2.75 2.75 2.75h7c1.52 0 2.75-1.23 2.75-2.75v-12c0-1.52-1.23-2.75-2.75-2.75zm-5 5h3c.41 0 .75.34.75.75s-.34.75-.75.75h-3c-.41 0-.75-.34-.75-.75s.34-.75.75-.75zm4 7.5h-5c-.41 0-.75-.34-.75-.75s.34-.75.75-.75h5c.41 0 .75.34.75.75s-.34.75-.75.75zm0-3h-5c-.41 0-.75-.34-.75-.75s.34-.75.75-.75h5c.41 0 .75.34.75.75s-.34.75-.75.75z"/></g></g><g id="k"/><g id="l"/><g id="m"/><g id="n"/><g id="o"/><g id="p"/><g id="q"/><g id="r"/><g id="s"/><g id="t"/><g id="u"/></svg>