<svg width="400" height="579" viewBox="0 0 400 579" fill="none" xmlns="http://www.w3.org/2000/svg">
<g clip-path="url(#clip0_6_130)">
<path d="M357.968 134.686L357.571 134.452L356.652 134.172C357.022 134.484 357.484 134.665 357.968 134.686Z" fill="#0D0C22"/>
<path d="M358.138 134.622C358.081 134.615 358.026 134.601 357.972 134.582C357.969 134.619 357.969 134.656 357.972 134.693C358.033 134.685 358.09 134.66 358.138 134.622Z" fill="#0D0C22"/>
<path d="M357.97 134.691H358.029V134.653L357.97 134.691Z" fill="#0D0C22"/>
<path d="M363.399 175.975L364.068 175.594L364.318 175.453L364.543 175.212C364.119 175.395 363.731 175.654 363.399 175.975Z" fill="#0D0C22"/>
<path d="M359.126 135.59L358.472 134.966L358.029 134.725C358.267 135.146 358.661 135.457 359.126 135.59Z" fill="#0D0C22"/>
<path d="M194.579 536.981C194.056 537.207 193.598 537.56 193.247 538.008L193.66 537.746C193.94 537.488 194.337 537.184 194.579 536.981Z" fill="#0D0C22"/>
<path d="M290.13 518.171C290.13 517.583 289.842 517.691 289.912 519.792C289.912 519.624 289.982 519.452 290.013 519.289C290.052 518.913 290.083 518.547 290.13 518.171Z" fill="#0D0C22"/>
<path d="M280.219 536.981C279.696 537.207 279.239 537.56 278.888 538.008L279.301 537.746C279.581 537.488 279.978 537.184 280.219 536.981Z" fill="#0D0C22"/>
<path d="M127.287 541.453C126.89 541.109 126.405 540.883 125.885 540.797C126.306 541.001 126.726 541.204 127.006 541.358L127.287 541.453Z" fill="#0D0C22"/>
<path d="M112.145 526.944C112.083 526.333 111.895 525.74 111.592 525.201C111.807 525.758 111.986 526.333 112.129 526.913L112.145 526.944Z" fill="#0D0C22"/>
<path d="M213.857 267.47C193.069 276.373 169.478 286.468 138.903 286.468C126.113 286.442 113.385 284.687 101.065 281.249L122.211 498.456C122.959 507.533 127.093 515.998 133.791 522.168C140.49 528.339 149.262 531.761 158.367 531.761C158.367 531.761 188.35 533.318 198.355 533.318C209.123 533.318 241.41 531.761 241.41 531.761C250.514 531.761 259.285 528.334 265.981 522.164C272.678 515.994 276.811 507.533 277.559 498.456L300.208 258.434C290.086 254.976 279.871 252.678 268.357 252.678C248.441 252.67 232.394 259.533 213.857 267.47Z" fill="#FFDD00"/>
<path d="M35.6057 174.801L35.9638 175.136L36.1974 175.276C36.0175 175.097 35.8191 174.938 35.6057 174.801Z" fill="#0D0C22"/>
<path d="M397.994 154.754L394.81 138.685C391.952 124.267 385.467 110.643 370.674 105.432C365.933 103.765 360.552 103.049 356.917 99.598C353.281 96.1475 352.206 90.7885 351.366 85.8188C349.808 76.6974 348.345 67.5683 346.748 58.4627C345.371 50.6342 344.281 41.8402 340.691 34.6585C336.02 25.0153 326.327 19.3759 316.688 15.6448C311.749 13.8002 306.709 12.2398 301.591 10.9712C277.51 4.61512 252.191 2.27832 227.417 0.946351C197.681 -0.695239 167.866 -0.200651 138.2 2.42631C116.12 4.43596 92.8638 6.86624 71.8814 14.5076C64.2127 17.3039 56.31 20.6611 50.4787 26.5888C43.3234 33.8718 40.9877 45.1351 46.2118 54.2173C49.9258 60.6669 56.2167 65.2237 62.8891 68.2383C71.5801 72.1224 80.6566 75.0781 89.9679 77.0559C115.894 82.7888 142.747 85.0397 169.234 85.998C198.591 87.1832 227.995 86.2226 257.213 83.1234C264.438 82.3289 271.65 81.376 278.849 80.2651C287.328 78.964 292.77 67.872 290.271 60.1449C287.281 50.9072 279.246 47.3241 270.161 48.7184C268.821 48.9284 267.49 49.1231 266.151 49.3178L265.186 49.4581C262.107 49.8479 259.029 50.2109 255.952 50.5486C249.593 51.234 243.219 51.7949 236.83 52.2313C222.519 53.2282 208.171 53.6877 193.829 53.7112C179.737 53.7112 165.637 53.3137 151.576 52.3871C145.161 51.9665 138.761 51.4314 132.376 50.7822C129.472 50.4785 126.576 50.1593 123.68 49.8008L120.924 49.4504L120.324 49.3648L117.467 48.952C111.628 48.0715 105.788 47.0593 100.011 45.8361C99.4285 45.7066 98.9068 45.3825 98.533 44.9163C98.1593 44.4504 97.9557 43.8709 97.9557 43.2735C97.9557 42.6761 98.1593 42.0965 98.533 41.6306C98.9068 41.1646 99.4285 40.8402 100.011 40.7108H100.12C105.127 39.6437 110.171 38.7323 115.232 37.9378C116.919 37.6729 118.611 37.4133 120.309 37.1589H120.355C123.524 36.9485 126.709 36.3799 129.862 36.006C157.296 33.1511 184.893 32.1778 212.461 33.0928C225.844 33.4823 239.22 34.269 252.541 35.6243C255.406 35.9204 258.256 36.232 261.105 36.5824C262.195 36.7149 263.293 36.8706 264.391 37.0031L266.602 37.3224C273.049 38.2831 279.462 39.4489 285.841 40.8199C295.293 42.8762 307.431 43.5461 311.635 53.9059C312.974 57.1929 313.581 60.8462 314.321 64.2966L315.263 68.6977C315.288 68.7765 315.306 68.8575 315.318 68.939C317.544 79.3248 319.774 89.7106 322.005 100.096C322.169 100.864 322.173 101.656 322.017 102.425C321.861 103.194 321.548 103.922 321.098 104.565C320.648 105.207 320.07 105.75 319.401 106.159C318.732 106.569 317.986 106.835 317.21 106.943H317.147L315.785 107.13L314.438 107.309C310.171 107.865 305.9 108.384 301.623 108.867C293.198 109.828 284.761 110.659 276.311 111.36C259.52 112.757 242.695 113.673 225.836 114.11C217.246 114.338 208.658 114.445 200.073 114.429C165.902 114.402 131.76 112.415 97.8158 108.478C94.1407 108.042 90.4661 107.574 86.7909 107.099C89.6407 107.465 84.7199 106.818 83.7235 106.679C81.3878 106.351 79.052 106.011 76.7163 105.658C68.876 104.482 61.0828 103.033 53.2579 101.763C43.7984 100.205 34.7514 100.985 26.1948 105.658C19.1713 109.503 13.4866 115.4 9.89936 122.561C6.20891 130.194 5.11113 138.505 3.46057 146.708C1.80999 154.91 -0.759299 163.735 0.213914 172.155C2.30827 190.328 15.0068 205.096 33.2721 208.399C50.4552 211.515 67.7317 214.039 85.0547 216.188C153.105 224.527 221.852 225.524 290.115 219.164C295.674 218.645 301.225 218.079 306.769 217.466C308.5 217.276 310.252 217.475 311.897 218.05C313.541 218.625 315.036 219.561 316.272 220.788C317.509 222.016 318.454 223.505 319.041 225.145C319.628 226.786 319.84 228.538 319.662 230.271L317.933 247.081C314.451 281.047 310.968 315.011 307.485 348.973C303.852 384.638 300.195 420.3 296.515 455.957C295.477 466.002 294.439 476.043 293.401 486.079C292.404 495.966 292.264 506.161 290.388 515.93C287.429 531.29 277.035 540.724 261.869 544.174C247.974 547.338 233.779 549 219.53 549.127C203.733 549.213 187.943 548.511 172.146 548.597C155.282 548.692 134.627 547.135 121.609 534.577C110.171 523.549 108.591 506.279 107.034 491.344C104.958 471.575 102.9 451.81 100.86 432.046L89.4149 322.146L82.0109 251.038C81.886 249.862 81.7615 248.701 81.6448 247.517C80.757 239.035 74.7543 230.731 65.2946 231.16C57.1977 231.518 47.995 238.404 48.9448 247.517L54.4335 300.235L65.7851 409.286C69.019 440.261 72.2448 471.24 75.4629 502.227C76.086 508.162 76.6697 514.115 77.3235 520.05C80.8819 552.486 105.64 569.964 136.3 574.885C154.208 577.769 172.551 578.362 190.723 578.656C214.018 579.032 237.546 579.928 260.459 575.704C294.413 569.471 319.888 546.791 323.523 511.607C324.562 501.448 325.6 491.29 326.638 481.127C330.09 447.518 333.536 413.907 336.977 380.293L348.236 270.465L353.398 220.13C353.655 217.634 354.708 215.287 356.402 213.437C358.096 211.587 360.34 210.331 362.803 209.856C372.511 207.963 381.792 204.73 388.698 197.338C399.691 185.569 401.879 170.224 397.994 154.754ZM32.7738 165.613C32.9217 165.542 32.6492 166.812 32.5324 167.404C32.5091 166.508 32.5558 165.714 32.7738 165.613ZM33.7159 172.903C33.7938 172.848 34.0273 173.16 34.2686 173.534C33.9027 173.191 33.6692 172.934 33.7081 172.903H33.7159ZM34.6424 174.126C34.9772 174.695 35.1562 175.053 34.6424 174.126V174.126ZM36.5032 175.637H36.5499C36.5499 175.692 36.6355 175.746 36.6666 175.801C36.615 175.741 36.5577 175.686 36.4954 175.637H36.5032ZM362.351 173.378C358.863 176.696 353.608 178.239 348.414 179.01C290.177 187.656 231.092 192.034 172.216 190.102C130.08 188.661 88.3873 183.979 46.6715 178.083C42.5838 177.507 38.1537 176.759 35.3431 173.744C30.0488 168.058 32.6492 156.608 34.0273 149.738C35.2886 143.444 37.7022 135.055 45.1842 134.159C56.8629 132.788 70.4253 137.719 81.9796 139.472C95.89 141.595 109.852 143.296 123.867 144.573C183.676 150.026 244.491 149.177 304.036 141.201C314.889 139.741 325.704 138.046 336.479 136.114C346.079 134.393 356.722 131.16 362.523 141.107C366.501 147.884 367.03 156.951 366.415 164.608C366.226 167.943 364.769 171.081 362.343 173.378H362.351Z" fill="#555555"/>
</g>
<defs>
<clipPath id="clip0_6_130">
<rect width="400" height="579" fill="white"/>
</clipPath>
</defs>
</svg>
