<svg viewBox="0 0 24 24" xmlns="http://www.w3.org/2000/svg"><g id="a"/><g id="b"/><g id="c"/><g id="d"/><g id="e"/><g id="f"/><g id="g"/><g id="h"/><g id="i"/><g id="j"/><g id="k"/><g id="l"/><g id="m"/><g id="n"/><g id="o"/><g id="p"/><g id="q"/><g id="r"/><g id="s"/><g id="t"/><g id="u"><path d="m19 4.25h-14c-1.52 0-2.75 1.23-2.75 2.75v8c0 1.52 1.23 2.75 2.75 2.75h6.65c.06 0 .11.02.16.05l4.73 3.78c.14.11.3.16.47.16.11 0 .22-.02.32-.07.26-.12.43-.39.43-.68v-3c0-.14.11-.25.25-.25h1c1.52 0 2.75-1.23 2.75-2.75v-7.99c0-1.52-1.23-2.75-2.75-2.75zm-6 9.5h-6c-.41 0-.75-.34-.75-.75s.34-.75.75-.75h6c.41 0 .75.34.75.75s-.34.75-.75.75zm4-4h-10c-.41 0-.75-.34-.75-.75s.34-.75.75-.75h10c.41 0 .75.34.75.75s-.34.75-.75.75z"/></g></svg>