<svg viewBox="0 0 32 32" xmlns="http://www.w3.org/2000/svg"><g id="github_coding_dev_developer" data-name="github coding dev developer"><path d="m16 3a13 13 0 0 0 -3.46 25.53 1 1 0 1 0 .53-1.92 11 11 0 1 1 7-.4 15.85 15.85 0 0 0 -.3-3.92 6.27 6.27 0 0 0 4.91-6.29 6.42 6.42 0 0 0 -1.05-3.87 7.09 7.09 0 0 0 -.4-3.36 1 1 0 0 0 -1.1-.67 8 8 0 0 0 -3.37 1.28 11.35 11.35 0 0 0 -2.76-.38 13.09 13.09 0 0 0 -3 .43 5.74 5.74 0 0 0 -3.38-1.18 1 1 0 0 0 -1 .66 7.06 7.06 0 0 0 -.37 3.19 7.15 7.15 0 0 0 -1.05 3.9 6.66 6.66 0 0 0 5 6.28 7.43 7.43 0 0 0 -.15.79c-1 .06-1.58-.55-2.32-1.48a3.45 3.45 0 0 0 -1.94-1.53 1 1 0 0 0 -1.15.76 1 1 0 0 0 .71 1.18c.16 0 .55.52.77.81a4.74 4.74 0 0 0 3.75 2.25 4.83 4.83 0 0 0 1.3-.18 1 1 0 0 0 .29-.14.72.72 0 0 0 .18-.21.34.34 0 0 0 .08-.09.85.85 0 0 0 .06-.17 1.52 1.52 0 0 0 .06-.2 4.11 4.11 0 0 1 .46-1.91 1 1 0 0 0 -.76-1.65 4.6 4.6 0 0 1 -4.34-4.51 4.84 4.84 0 0 1 .87-3 1 1 0 0 0 .24-.83 5 5 0 0 1 0-1.85 3.59 3.59 0 0 1 1.74.92 1 1 0 0 0 1 .23 12.49 12.49 0 0 1 2.95-.47 9.91 9.91 0 0 1 2.65.43 1 1 0 0 0 1-.18 5 5 0 0 1 2-1 4.11 4.11 0 0 1 0 1.91 1.05 1.05 0 0 0 .32 1 4 4 0 0 1 .71 2.84 4.29 4.29 0 0 1 -4.41 4.46 1 1 0 0 0 -.94.65 1 1 0 0 0 .28 1.11c.59.51.5 4 .47 5.36a1 1 0 0 0 .38.81 1 1 0 0 0 .62.21 1.07 1.07 0 0 0 .25 0 13 13 0 0 0 -3.33-25.6z"/></g></svg>