<svg viewBox="0 0 24 24" xmlns="http://www.w3.org/2000/svg"><g id="a"/><g id="b"/><g id="c"/><g id="d"/><g id="e"/><g id="f"/><g id="g"/><g id="h"/><g id="i"/><g id="j"/><g id="k"/><g id="l"/><g id="m"/><g id="n"/><g id="o"/><g id="p"/><g id="q"/><g id="r"><path d="m20.88 8.96-7.81-6.07c-.63-.49-1.51-.49-2.15 0l-7.8 6.07c-.55.43-.87 1.08-.87 1.78v8.77c0 1.24 1.01 2.25 2.25 2.25h3c1.24 0 2.25-1.01 2.25-2.25v-3c0-.41.34-.75.75-.75h3c.41 0 .75.34.75.75v3c0 1.24 1.01 2.25 2.25 2.25h3c1.24 0 2.25-1.01 2.25-2.25v-8.78c0-.7-.32-1.35-.87-1.78z"/></g><g id="s"/><g id="t"/><g id="u"/></svg>