<?xml version="1.0" encoding="UTF-8" standalone="no"?>
<!-- Created with Inkscape (http://www.inkscape.org/) -->

<svg
   version="1.1"
   id="svg1755"
   xml:space="preserve"
   width="682.66669"
   height="682.66669"
   viewBox="0 0 682.66669 682.66669"
   xmlns="http://www.w3.org/2000/svg"
   xmlns:svg="http://www.w3.org/2000/svg"><defs
     id="defs1759"><clipPath
       clipPathUnits="userSpaceOnUse"
       id="clipPath1769"><path
         d="M 0,512 H 512 V 0 H 0 Z"
         id="path1767" /></clipPath></defs><g
     id="g1761"
     transform="matrix(1.3333333,0,0,-1.3333333,0,682.66667)"><g
       id="g1763"><g
         id="g1765"
         clip-path="url(#clipPath1769)"><g
           id="g1771"
           transform="translate(320.2666,143.5332)"><path
             d="m 0,0 c 0,64.267 48.2,64.267 48.2,144.601 0,62.073 -50.369,112.465 -112.467,112.465 -62.097,0 -112.466,-50.392 -112.466,-112.465 0,-80.334 48.2,-80.334 48.2,-144.601 z"
             style="fill:none;stroke:#000000;stroke-width:30;stroke-linecap:round;stroke-linejoin:round;stroke-miterlimit:10;stroke-dasharray:none;stroke-opacity:1"
             id="path1773" /></g><g
           id="g1775"
           transform="translate(256,464.8662)"><path
             d="M 0,0 V 32.134"
             style="fill:none;stroke:#000000;stroke-width:30;stroke-linecap:round;stroke-linejoin:round;stroke-miterlimit:10;stroke-dasharray:none;stroke-opacity:1"
             id="path1777" /></g><g
           id="g1779"
           transform="translate(47.1333,288.1338)"><path
             d="M 0,0 H 32.133"
             style="fill:none;stroke:#000000;stroke-width:30;stroke-linecap:round;stroke-linejoin:round;stroke-miterlimit:10;stroke-dasharray:none;stroke-opacity:1"
             id="path1781" /></g><g
           id="g1783"
           transform="translate(432.7334,288.1338)"><path
             d="M 0,0 H 32.133"
             style="fill:none;stroke:#000000;stroke-width:30;stroke-linecap:round;stroke-linejoin:round;stroke-miterlimit:10;stroke-dasharray:none;stroke-opacity:1"
             id="path1785" /></g><g
           id="g1787"
           transform="translate(108.3472,435.8262)"><path
             d="M 0,0 22.654,-22.727"
             style="fill:none;stroke:#000000;stroke-width:30;stroke-linecap:round;stroke-linejoin:round;stroke-miterlimit:10;stroke-dasharray:none;stroke-opacity:1"
             id="path1789" /></g><g
           id="g1791"
           transform="translate(380.999,163.167)"><path
             d="M 0,0 22.654,-22.727"
             style="fill:none;stroke:#000000;stroke-width:30;stroke-linecap:round;stroke-linejoin:round;stroke-miterlimit:10;stroke-dasharray:none;stroke-opacity:1"
             id="path1793" /></g><g
           id="g1795"
           transform="translate(108.3472,140.4404)"><path
             d="M 0,0 22.654,22.727"
             style="fill:none;stroke:#000000;stroke-width:30;stroke-linecap:round;stroke-linejoin:round;stroke-miterlimit:10;stroke-dasharray:none;stroke-opacity:1"
             id="path1797" /></g><g
           id="g1799"
           transform="translate(380.999,413.0996)"><path
             d="M 0,0 22.654,22.727"
             style="fill:none;stroke:#000000;stroke-width:30;stroke-linecap:round;stroke-linejoin:round;stroke-miterlimit:10;stroke-dasharray:none;stroke-opacity:1"
             id="path1801" /></g><g
           id="g1803"
           transform="translate(320.2666,111.4004)"><path
             d="M 0,0 C 0,-17.746 -14.38,-32.134 -32.133,-32.134 H -96.4 c -17.753,0 -32.133,14.388 -32.133,32.134 V 32.133 H 0 Z"
             style="fill:none;stroke:#000000;stroke-width:30;stroke-linecap:round;stroke-linejoin:round;stroke-miterlimit:10;stroke-dasharray:none;stroke-opacity:1"
             id="path1805" /></g><g
           id="g1807"
           transform="translate(288.1333,47.1338)"><path
             d="m 0,0 c 0,-17.746 -14.38,-32.134 -32.133,-32.134 -17.754,0 -32.134,14.388 -32.134,32.134 V 32.133 H 0 Z"
             style="fill:none;stroke:#000000;stroke-width:30;stroke-linecap:round;stroke-linejoin:round;stroke-miterlimit:10;stroke-dasharray:none;stroke-opacity:1"
             id="path1809" /></g><g
           id="g1811"
           transform="translate(223.8667,239.9336)"><path
             d="M 0,0 H 64.267"
             style="fill:none;stroke:#000000;stroke-width:30;stroke-linecap:round;stroke-linejoin:round;stroke-miterlimit:10;stroke-dasharray:none;stroke-opacity:1"
             id="path1813" /></g><g
           id="g1815"
           transform="translate(256,239.9336)"><path
             d="M 0,0 V -96.4"
             style="fill:none;stroke:#000000;stroke-width:30;stroke-linecap:round;stroke-linejoin:round;stroke-miterlimit:10;stroke-dasharray:none;stroke-opacity:1"
             id="path1817" /></g></g></g></g></svg>
