<?xml version="1.0" encoding="iso-8859-1"?>
<!-- Generator: Adobe Illustrator 19.0.0, SVG Export Plug-In . SVG Version: 6.00 Build 0)  -->
<svg version="1.1" id="Layer_1" xmlns="http://www.w3.org/2000/svg" xmlns:xlink="http://www.w3.org/1999/xlink" x="0px" y="0px"
	 viewBox="0 0 512 512" style="enable-background:new 0 0 512 512;" xml:space="preserve">
<g>
	<g>
		<path d="M256,120c-74.424,0-136,61.353-136,136c0,74.424,61.353,136,136,136c74.424,0,136-61.353,136-136
			C392,181.576,330.647,120,256,120z M241,360.882c-50.659-7.542-91-52.504-91-104.882s40.341-97.34,91-104.882V360.882z
			 M271,360.882V151.118c50.659,7.542,91,52.503,91,104.882C362,308.379,321.659,353.34,271,360.882z"/>
	</g>
</g>
<g>
	<g>
		<path d="M256,0c-8.284,0-15,6.716-15,15v60c0,8.284,6.716,15,15,15s15-6.716,15-15V15C271,6.716,264.284,0,256,0z"/>
	</g>
</g>
<g>
	<g>
		<path d="M256,422c-8.284,0-15,6.716-15,15v60c0,8.284,6.716,15,15,15s15-6.716,15-15v-60C271,428.716,264.284,422,256,422z"/>
	</g>
</g>
<g>
	<g>
		<path d="M75,241H15c-8.284,0-15,6.716-15,15s6.716,15,15,15h60c8.284,0,15-6.716,15-15S83.284,241,75,241z"/>
	</g>
</g>
<g>
	<g>
		<path d="M497,241h-60c-8.284,0-15,6.716-15,15s6.716,15,15,15h60c8.284,0,15-6.716,15-15S505.284,241,497,241z"/>
	</g>
</g>
<g>
	<g>
		<path d="M138.327,373.673c-5.857-5.858-15.355-5.858-21.213,0l-42.426,42.426c-5.858,5.858-5.858,15.355,0,21.213
			c5.857,5.858,15.356,5.858,21.213,0l42.426-42.426C144.185,389.028,144.185,379.531,138.327,373.673z"/>
	</g>
</g>
<g>
	<g>
		<path d="M437.312,74.688c-5.857-5.858-15.355-5.858-21.213,0l-42.426,42.426c-5.858,5.858-5.858,15.355,0,21.213
			c5.857,5.857,15.355,5.858,21.213,0l42.426-42.426C443.17,90.043,443.17,80.546,437.312,74.688z"/>
	</g>
</g>
<g>
	<g>
		<path d="M437.312,416.099l-42.426-42.426c-5.857-5.858-15.355-5.858-21.213,0c-5.858,5.858-5.858,15.355,0,21.213l42.426,42.426
			c5.857,5.858,15.356,5.858,21.213,0C443.17,431.454,443.17,421.957,437.312,416.099z"/>
	</g>
</g>
<g>
	<g>
		<path d="M138.327,117.114L95.901,74.688c-5.858-5.858-15.356-5.858-21.213,0c-5.858,5.858-5.858,15.355,0,21.213l42.426,42.426
			c5.857,5.857,15.355,5.858,21.213,0C144.185,132.469,144.185,122.972,138.327,117.114z"/>
	</g>
</g>
<g>
</g>
<g>
</g>
<g>
</g>
<g>
</g>
<g>
</g>
<g>
</g>
<g>
</g>
<g>
</g>
<g>
</g>
<g>
</g>
<g>
</g>
<g>
</g>
<g>
</g>
<g>
</g>
<g>
</g>
</svg>
