<svg width="127" height="118" viewBox="0 0 127 118" fill="none" xmlns="http://www.w3.org/2000/svg">
<path d="M90 110.75C90 110.75 100 113.25 101 111.25C102 109.25 96 107.75 96 107.75C95.5 104.75 94 101.25 94 101.25C94 101.25 93.5 96.2502 95 88.7502C96.5 81.2502 97.5 79.2502 97.5 79.2502C102.5 72.2502 102.5 66.2502 102.5 66.2502L89 76.7502L86.5 99.2502L90 110.75Z" fill="black" stroke="white" stroke-width="0.5" stroke-linecap="round"/>
<path d="M99.5 7.75026C101.5 4.75026 102 3.75032 103 2.25022C104 0.750116 104.3 1.25018 104.5 2.25021C104.7 3.25025 105 8.75024 104.5 11.2502C100 10.2502 99.5 7.75026 99.5 7.75026Z" fill="black" stroke="white" stroke-width="0.5"/>
<path d="M12.5 106.25C11.9998 105.25 11.6 100.55 12 93.7502C19.5 85.2502 35.2001 67.8502 38.0001 66.2502C38.3427 75.5788 24.5001 88.2502 22.0001 90.7502C21.0001 93.2502 19.0001 97.2502 18.0001 98.7502C18.2001 100.75 18.0001 104.25 18.0001 104.25C18.0001 104.25 23 105.75 22.5 107.75C22 109.75 16.5001 108.75 15.0001 108.25C13.5001 107.75 13.0001 107.25 12.5 106.25Z" fill="black" stroke="white" stroke-width="0.5"/>
<path d="M15.4999 47.7501C13.8332 45.5834 11.9925 39.9411 13.9999 33.2501C15.1999 29.2501 18.5 25.7502 23.5 24.2502C26.3735 23.3881 31.5 23.3125 35.9999 27.2501C39.4284 30.25 41.5499 33.7501 41.9999 38.2502C45.9999 37.25 57 36.7503 63.5 36.7503C65 35.7502 68.5 33.2502 78.5 33.7503C84.5 18.2503 88.5 13.2503 93 10.7501C93 10.7501 98.3 2.75026 99 1.75007C99.7 0.749883 100.3 0.75007 100.5 1.75007C100.7 2.75007 100.7 6.25026 100.5 8.75007C109.5 9.25007 112 10.7501 114.5 14.7501C114.882 15.3615 115.343 15.6186 116 15.7501C118.5 16.2501 123.5 17.2501 124.5 17.7501C126.5 18.2501 126.5 18.7501 126.5 19.7501C126.5 20.7501 125.5 21.7501 125.5 21.7501C125.5 21.7501 125.5 22.7501 124.5 23.7501C124.5 24.1501 124.5 25.7502 124 26.2502C123.5 26.7502 122 27.7502 121 28.2502C120 28.7502 117 29.2501 114.5 29.7501C114.5 29.7501 113.5 32.2501 111.5 35.2501C111.9 39.2501 112.5 44.2501 109.5 50.7501C109.5 50.7501 106.5 56.2501 106 57.7501C105.5 59.2501 106.5 61.2501 105.5 64.2501C102 69.7501 97 75.7501 95.5 77.2501C95.4 79.2501 94.5 81.2501 93.5 82.7501C93.5 82.7501 92 89.7502 91.5 95.7501C91 101.75 91 108.25 91 108.25C91.8 109.45 92.5 110.75 93 113.25C97.5 114.25 99 115.75 98 116.75C97 117.75 92.5 117.35 90.5 117.25C88.5 117.15 87.5 115.75 87 114.75C86.5 113.75 85 110.75 84.5 109.25C84 107.75 83.5 106.75 83.5 103.75C82.7 102.55 82.5 100.417 82.5 98.2501C82.5 96.0834 81.5 82.7501 80.5 78.7501C80.5 78.7501 54.5 78.7501 45.5 67.7501C45.5 67.7501 42.5 67.2501 40 68.2501C37.5 69.2501 36 70.7501 35 71.7501C34 72.7501 32.5 74.7501 31.5 76.2501C30.5 77.7501 27.5 81.7501 24.5 85.2501C21.5 88.7501 20.5 89.7501 19 91.2501C17.5 92.7501 12 96.7501 11.5 97.2501C11 97.7501 8.5 102.75 8 103.75C7.5 104.75 7 108.75 7.5 111.25C9.5 112.25 12.3666 113.517 11.5 115.25C10.6334 116.983 6 116.25 3.5 115.75C1 115.25 1 114.25 1 113.25C1 112.25 1.5 98.7501 3 94.7501C4 93.2501 5 92.2501 7.5 89.2501C7.5 89.2501 8.5 83.4167 9 82.2501C8.5 78.0834 7.5 68.7501 7.5 64.7501C7.5 60.7501 8.5 59.2501 10 56.75L15.4999 47.7501Z" fill="black"/>
<path d="M41.9999 38.2502C41.5499 33.7501 39.4284 30.25 35.9999 27.2501C31.5 23.3125 26.3735 23.3881 23.5 24.2502C18.5 25.7502 15.1999 29.2501 13.9999 33.2501C11.9925 39.9411 13.8332 45.5834 15.4999 47.7501L10 56.75C8.5 59.2501 7.5 60.7501 7.5 64.7501C7.5 68.7501 8.5 78.0834 9 82.2501C8.5 83.4167 7.5 89.2501 7.5 89.2501C5 92.2501 4 93.2501 3 94.7501C1.5 98.7501 1 112.25 1 113.25C1 114.25 1 115.25 3.5 115.75C6 116.25 10.6334 116.983 11.5 115.25C12.3666 113.517 9.5 112.25 7.5 111.25C7 108.75 7.5 104.75 8 103.75C8.5 102.75 11 97.7501 11.5 97.2501C12 96.7501 17.5 92.7501 19 91.2501C20.5 89.7501 21.5 88.7501 24.5 85.2501C27.5 81.7501 30.5 77.7501 31.5 76.2501C32.5 74.7501 34 72.7501 35 71.7501C36 70.7501 37.5 69.2501 40 68.2501C42.5 67.2501 45.5 67.7501 45.5 67.7501C54.5 78.7501 80.5 78.7501 80.5 78.7501M41.9999 38.2502C42.5193 43.4444 37.9999 45.7502 35.9999 46.2502C33.9999 46.7502 28.4999 47.7501 24.4999 47.7501C25.1666 47.4168 26.7 46.3502 27.5 44.7502C28.5 42.7502 28 41.7502 27.5 40.7502C27 39.7502 25.5 38.7502 23.5 38.7502C21.5 38.7502 20.3162 40.6177 20 41.2502C19.5 42.2502 19.5 44.2502 20.5 44.7502M41.9999 38.2502C45.9999 37.25 57 36.7503 63.5 36.7503C65 35.7502 68.5 33.2502 78.5 33.7503C84.5 18.2503 88.5 13.2503 93 10.7501C93 10.7501 98.3 2.75026 99 1.75007C99.7 0.749883 100.3 0.75007 100.5 1.75007C100.7 2.75007 100.7 6.25026 100.5 8.75007M80.5 78.7501C78 75.2501 77 69.2501 77 69.2501M80.5 78.7501C81.5 82.7501 82.5 96.0834 82.5 98.2501C82.5 100.417 82.7 102.55 83.5 103.75C83.5 106.75 84 107.75 84.5 109.25C85 110.75 86.5 113.75 87 114.75C87.5 115.75 88.5 117.15 90.5 117.25C92.5 117.35 97 117.75 98 116.75C99 115.75 97.5 114.25 93 113.25C92.5 110.75 91.8 109.45 91 108.25C91 108.25 91 101.75 91.5 95.7501C92 89.7502 93.5 82.7501 93.5 82.7501C94.5 81.2501 95.4 79.2501 95.5 77.2501C97 75.7501 102 69.7501 105.5 64.2501C106.5 61.2501 105.5 59.2501 106 57.7501C106.5 56.2501 109.5 50.7501 109.5 50.7501C112.5 44.2501 111.9 39.2501 111.5 35.2501C113.5 32.2501 114.5 29.7501 114.5 29.7501M114.5 29.7501C113 30.0501 111.5 30.2502 111.5 30.2502M114.5 29.7501C117 29.2501 120 28.7502 121 28.2502C122 27.7502 123.5 26.7502 124 26.2502C124.5 25.7502 124.5 24.1501 124.5 23.7501M124.5 23.7501C123.5 24.7501 121.677 25.5243 121 25.7501C119.5 26.2501 116.5 26.2501 115 26.2501M124.5 23.7501C125.5 22.7501 125.5 21.7501 125.5 21.7501C125.5 21.7501 126.5 20.7501 126.5 19.7501C126.5 18.7501 126.5 18.2501 124.5 17.7501C123.5 17.2501 118.5 16.2501 116 15.7501C115.343 15.6186 114.882 15.3615 114.5 14.7501C112 10.7501 109.5 9.25007 100.5 8.75007M100.5 8.75007C100.3 11.2503 100 12.7503 100 12.7503" stroke="white" stroke-width="0.5" stroke-linecap="round" stroke-linejoin="round"/>
</svg>
